HIERARCHY
ROOT SpineBase
{
  OFFSET 0.000000 0.000000 0.000000
  CHANNELS 6 Xposition Yposition Zposition Zrotation Xrotation Yrotation
  JOINT SpineMid
  {
    OFFSET 0.000000 31.541369 0.000000
    CHANNELS 3 Zrotation Xrotation Yrotation
    JOINT SpineShoulder
    {
      OFFSET 0.050391 23.499752 -0.762451
      CHANNELS 3 Zrotation Xrotation Yrotation
      JOINT Neck
      {
        OFFSET 0.025244 7.815464 -0.596852
        CHANNELS 3 Zrotation Xrotation Yrotation
        JOINT Head
        {
          OFFSET 3.327987 13.737452 0.648832
          CHANNELS 3 Zrotation Xrotation Yrotation
          End Site
          {
            OFFSET 0 0 0
          }
        }
      }
      JOINT ShoulderLeft
      {
        OFFSET -14.776430 -1.816194 -8.358826
        CHANNELS 3 Zrotation Xrotation Yrotation
        JOINT ElbowLeft
        {
          OFFSET -8.551371 -25.031719 3.675581
          CHANNELS 3 Zrotation Xrotation Yrotation
          JOINT WristLeft
          {
            OFFSET 0.232016 -22.136949 2.040468
            CHANNELS 3 Zrotation Xrotation Yrotation
            JOINT HandLeft
            {
              OFFSET 0.011866 -4.831398 0.909553
              CHANNELS 3 Zrotation Xrotation Yrotation
              JOINT HandTipLeft
              {
                OFFSET -0.555044 -6.338787 1.837971
                CHANNELS 3 Zrotation Xrotation Yrotation
                End Site
                {
                  OFFSET 0 0 0
                }
              }
              JOINT ThumbLeft
              {
                OFFSET 2.429009 0.598417 -3.805424
                CHANNELS 3 Zrotation Xrotation Yrotation
                End Site
                {
                  OFFSET 0 0 0
                }
              }
            }
          }
        }
      }
      JOINT ShoulderRight
      {
        OFFSET 17.133490 -2.969412 5.674214
        CHANNELS 3 Zrotation Xrotation Yrotation
        JOINT ElbowRight
        {
          OFFSET 2.550444 -29.199508 2.205758
          CHANNELS 3 Zrotation Xrotation Yrotation
          JOINT WristRight
          {
            OFFSET 2.989632 -22.886838 -5.493956
            CHANNELS 3 Zrotation Xrotation Yrotation
            JOINT HandRight
            {
              OFFSET -0.965991 -6.674281 -1.542374
              CHANNELS 3 Zrotation Xrotation Yrotation
              JOINT HandTipRight
              {
                OFFSET 0.376319 -7.073303 -0.177422
                CHANNELS 3 Zrotation Xrotation Yrotation
                End Site
                {
                  OFFSET 0 0 0
                }
              }
              JOINT ThumbRight
              {
                OFFSET -4.039059 1.258888 -2.833765
                CHANNELS 3 Zrotation Xrotation Yrotation
                End Site
                {
                  OFFSET 0 0 0
                }
              }
            }
          }
        }
      }
    }
  }
  JOINT HipLeft
  {
    OFFSET -6.989848 1.919698 -5.970974
    CHANNELS 3 Zrotation Xrotation Yrotation
    JOINT KneeLeft
    {
      OFFSET -6.660289 -31.539790 0.488858
      CHANNELS 3 Zrotation Xrotation Yrotation
      JOINT AnkleLeft
      {
        OFFSET -2.863417 -34.571526 5.797651
        CHANNELS 3 Zrotation Xrotation Yrotation
        JOINT FootLeft
        {
          OFFSET 4.907147 -2.998683 -13.260566
          CHANNELS 3 Zrotation Xrotation Yrotation
          End Site
          {
            OFFSET 0 0 0
          }
        }
      }
    }
  }
  JOINT HipRight
  {
    OFFSET 7.320074 0.683513 -0.900595
    CHANNELS 3 Zrotation Xrotation Yrotation
    JOINT KneeRight
    {
      OFFSET -0.813659 -31.073787 4.303763
      CHANNELS 3 Zrotation Xrotation Yrotation
      JOINT AnkleRight
      {
        OFFSET -2.086642 -36.054868 8.684889
        CHANNELS 3 Zrotation Xrotation Yrotation
        JOINT FootRight
        {
          OFFSET 4.741204 -6.963297 -2.304270
          CHANNELS 3 Zrotation Xrotation Yrotation
          End Site
          {
            OFFSET 0 0 0
          }
        }
      }
    }
  }
}
MOTION
Frames: 16
Frame Time: 0.033333
-15.421505 73.549848 318.184453 -0.000000 0.000000 -19.510568 -0.000000 0.000000 19.510568 -0.000000 0.000000 0.000000 -0.000000 0.000000 0.000000 0.000000 0.000000 0.000000 -0.000000 0.000000 0.000000 -0.000000 0.000000 0.000000 -0.000000 0.000000 0.000000 -0.000000 0.000000 0.000000 0.000000 0.000000 0.000000 0.000000 0.000000 0.000000 -0.000000 0.000000 0.000000 -0.000000 0.000000 0.000000 -0.000000 0.000000 0.000000 -0.000000 0.000000 0.000000 0.000000 0.000000 0.000000 0.000000 0.000000 0.000000 -0.000000 0.000000 19.510568 -0.000000 0.000000 0.000000 -0.000000 0.000000 0.000000 0.000000 0.000000 0.000000 -0.000000 0.000000 19.510568 -0.000000 0.000000 0.000000 -0.000000 0.000000 0.000000 0.000000 0.000000 0.000000
-15.417154 73.541297 318.197791 0.021522 -0.002605 -19.557839 -0.021153 -0.004750 19.557839 -0.000000 0.000000 0.000000 -0.000000 0.000000 0.000000 0.000000 0.000000 0.000000 -0.000000 0.000000 0.000000 -0.000000 0.000000 0.000000 0.287683 -0.929963 0.054127 1.754846 4.664771 0.116107 0.000000 0.000000 0.000000 0.000000 0.000000 0.000000 -0.000000 0.000000 0.000000 -0.000000 0.000000 0.000000 -0.000000 0.000000 0.000000 -1.759978 2.514702 0.216649 0.000000 0.000000 0.000000 0.000000 0.000000 0.000000 -0.021153 -0.004750 19.557839 -0.000000 0.000000 0.000000 -1.032732 -2.436400 0.625465 0.000000 0.000000 0.000000 -0.021153 -0.004750 19.557839 -0.000000 0.000000 0.000000 -0.000000 0.000000 0.000000 0.000000 0.000000 0.000000
-15.415346 73.534722 318.208957 0.038181 -0.000902 -19.595266 -0.036272 -0.011955 19.595263 -0.000000 0.000000 0.000000 -0.000000 0.000000 0.000000 0.000000 0.000000 0.000000 -0.000000 0.000000 0.000000 -0.000000 0.000000 0.000000 0.421345 -1.861157 0.081345 3.411997 8.798134 0.076158 0.000000 0.000000 0.000000 0.000000 0.000000 0.000000 -0.000000 0.000000 0.000000 -0.000000 0.000000 0.000000 0.898998 -0.075656 -0.196465 -3.894753 4.523475 0.630264 0.000000 0.000000 0.000000 0.000000 0.000000 0.000000 -0.036272 -0.011955 19.595263 -0.000000 0.000000 0.000000 -1.893864 -4.520136 1.127408 0.000000 0.000000 0.000000 -0.036272 -0.011955 19.595263 -0.000000 0.000000 0.000000 -0.000000 0.000000 0.000000 0.000000 0.000000 0.000000
-15.416084 73.530125 318.217951 0.049979 0.005107 -19.622827 -0.045361 -0.021595 19.622816 -0.000000 0.000000 0.000000 -0.000000 0.000000 0.000000 0.000000 0.000000 0.000000 -0.000000 0.000000 0.000000 -0.277618 0.860366 -0.014498 0.679881 -3.661861 0.102738 4.961697 12.367909 -0.065099 0.000000 0.000000 0.000000 0.000000 0.000000 0.000000 -0.000000 0.000000 0.000000 -0.000000 0.000000 0.000000 1.275774 -0.073430 -0.283887 -4.986133 5.924230 0.885127 0.000000 0.000000 0.000000 0.000000 0.000000 0.000000 -0.045361 -0.021595 19.622816 -0.000000 0.000000 0.000000 -2.542092 -6.117436 1.494492 0.000000 0.000000 0.000000 -0.045361 -0.021595 19.622816 -0.000000 0.000000 0.000000 -0.000000 0.000000 0.000000 0.000000 0.000000 0.000000
-15.419365 73.527505 318.224773 0.056919 0.015421 -19.640504 -0.048424 -0.033656 19.640482 -0.000000 0.000000 0.000000 -0.000000 0.000000 0.000000 0.000000 0.000000 0.000000 -0.000000 0.000000 0.000000 -0.255697 1.123555 -0.009294 0.480073 -4.883236 0.058535 6.389859 15.353473 -0.255933 0.000000 0.000000 0.000000 0.000000 0.000000 0.000000 -0.000000 0.000000 0.000000 -0.000000 0.000000 0.000000 1.611404 -0.045407 -0.365974 -5.531819 6.799165 1.060363 0.000000 0.000000 0.000000 0.000000 0.000000 0.000000 -0.048424 -0.033656 19.640482 -0.000000 0.000000 0.000000 -2.944797 -7.120178 1.720944 0.000000 0.000000 0.000000 -0.048424 -0.033656 19.640482 -0.000000 0.000000 0.000000 -0.000000 0.000000 0.000000 0.000000 0.000000 0.000000
-15.425191 73.526862 318.229423 0.059005 0.030040 -19.648290 -0.045469 -0.048131 19.648255 -0.000000 0.000000 0.000000 -0.000000 0.000000 0.000000 0.000000 0.000000 0.000000 -0.000000 0.000000 0.000000 -0.178354 1.375493 0.000118 0.060094 -6.119065 -0.037218 7.675898 17.732850 -0.447561 0.000000 0.000000 0.000000 0.000000 0.000000 0.000000 -0.000000 0.000000 0.000000 -0.000000 0.000000 0.000000 1.910088 0.008400 -0.443864 -5.541667 7.171763 1.144822 0.000000 0.000000 0.000000 0.000000 0.000000 0.000000 -0.045469 -0.048131 19.648255 -0.000000 0.000000 0.000000 -3.081174 -7.458565 1.804472 0.000000 0.000000 0.000000 -0.045469 -0.048131 19.648255 -0.000000 0.000000 0.000000 0.095930 1.239845 0.808075 0.000000 0.000000 0.000000
-15.442517 73.529020 318.227028 0.051199 0.050419 -19.659723 -0.031252 -0.064705 19.659683 -0.000000 0.000000 0.000000 -0.000000 0.000000 0.000000 0.000000 0.000000 0.000000 -0.000000 0.000000 0.000000 0.066229 1.756657 0.023535 -1.039219 -7.660563 -0.299519 9.348396 20.473959 -0.702109 0.000000 0.000000 0.000000 0.000000 0.000000 0.000000 -0.000000 0.000000 0.000000 -0.000000 0.000000 0.000000 2.351251 0.090595 -0.559960 -5.150087 6.060032 1.100128 0.000000 0.000000 0.000000 0.000000 0.000000 0.000000 -0.031252 -0.064705 19.659683 -0.000000 0.000000 0.000000 -2.944308 -7.108504 1.745169 0.000000 0.000000 0.000000 -0.031252 -0.064705 19.659683 -0.000000 0.000000 0.000000 0.704941 2.936563 1.726542 0.000000 0.000000 0.000000
-15.458176 73.533455 318.221133 0.036061 0.080630 -19.642691 -0.006859 -0.088060 19.642661 -0.000000 0.000000 0.000000 -0.000000 0.000000 0.000000 0.000000 0.000000 0.000000 -0.000000 0.000000 0.000000 0.362160 2.104079 0.048868 -3.502994 -10.560287 -1.004469 12.753653 24.426432 -1.121254 0.000000 0.000000 0.000000 0.000000 0.000000 0.000000 -0.000000 0.000000 0.000000 -0.000000 0.000000 0.000000 2.343683 0.189354 -0.574438 -3.869672 6.353219 1.035036 0.000000 0.000000 0.000000 0.000000 0.000000 0.000000 -0.006859 -0.088060 19.642661 -0.000000 0.000000 0.000000 -2.540216 -6.095042 1.532536 0.000000 0.000000 0.000000 -0.717767 -0.743150 19.524248 1.729717 0.535018 0.297433 -0.058121 4.094017 2.373280 0.000000 0.000000 0.000000
-15.465926 73.539502 318.222054 0.029317 0.107292 -19.615744 0.008404 -0.110908 19.615724 -0.000000 0.000000 0.000000 -0.000000 0.000000 0.000000 0.000000 0.000000 0.000000 -0.000000 0.000000 0.000000 0.549442 2.194440 0.063233 -4.472673 -12.101171 -1.311167 12.551353 24.014304 -0.982705 0.000000 0.000000 0.000000 0.000000 0.000000 0.000000 -0.000000 0.000000 0.000000 -0.000000 0.000000 0.000000 2.537048 0.155595 -0.614122 -1.961299 5.834565 0.881941 0.000000 0.000000 0.000000 0.000000 0.000000 0.000000 0.008404 -0.110908 19.615724 -0.000000 0.000000 0.000000 -1.893121 -4.486879 1.190349 0.000000 0.000000 0.000000 -0.772595 -0.859822 19.484101 1.930899 0.634686 0.329289 -0.299708 5.204363 3.153055 0.000000 0.000000 0.000000
-15.464018 73.547238 318.227267 0.026892 0.134690 -19.569333 0.019775 -0.135918 19.569324 -0.000000 0.000000 0.000000 -0.000000 0.000000 0.000000 0.000000 0.000000 0.000000 -0.000000 0.000000 0.000000 0.451977 2.168558 0.055933 -3.617193 -13.058189 -1.093049 10.014823 19.599957 -0.334462 0.000000 0.000000 0.000000 0.000000 0.000000 0.000000 -0.000000 0.000000 0.000000 -0.000000 0.000000 0.000000 3.188072 0.218412 -0.777395 -1.899980 5.796748 0.988881 0.000000 0.000000 0.000000 0.000000 0.000000 0.000000 0.019775 -0.135918 19.569324 -0.000000 0.000000 0.000000 -1.035011 -2.392844 0.715846 0.000000 0.000000 0.000000 -0.607138 -0.789472 19.462829 1.591697 0.603105 0.269183 -0.701000 5.569084 3.655238 0.000000 0.000000 0.000000
-15.450516 73.552193 318.248572 0.034258 0.142857 -19.521915 0.015449 -0.146093 19.521892 -0.000000 0.000000 0.000000 -0.000000 0.000000 0.000000 0.000000 0.000000 0.000000 -0.000000 0.000000 0.000000 0.067528 2.033239 0.026382 -1.076701 -12.714298 -0.367161 7.467351 16.791687 -0.128065 0.000000 0.000000 0.000000 0.000000 0.000000 0.000000 -0.000000 0.000000 0.000000 -0.557526 0.559509 0.209531 3.907396 -0.127493 -1.025644 -0.913252 3.581364 0.914173 0.000000 0.000000 0.000000 0.000000 0.000000 0.000000 0.015449 -0.146093 19.521892 -0.000000 0.000000 0.000000 -0.000000 0.000000 0.000000 0.000000 0.000000 0.000000 0.015449 -0.146093 19.521892 -0.000000 0.000000 0.000000 -0.691066 5.608078 4.033544 0.000000 0.000000 0.000000
-15.431707 73.554514 318.267562 0.042988 0.149440 -19.501043 0.009364 -0.155218 19.500999 -0.000000 0.000000 0.000000 -0.000000 0.000000 0.000000 0.000000 0.000000 0.000000 -0.000000 0.000000 0.000000 -0.194626 2.022116 0.006702 1.557115 -11.646467 0.388638 3.329756 14.710514 -0.227845 0.000000 0.000000 0.000000 0.000000 0.000000 0.000000 -0.000000 0.000000 0.000000 -0.000000 0.000000 0.000000 3.392079 0.490455 -0.872479 -0.296784 1.973930 0.856323 0.000000 0.000000 0.000000 0.000000 0.000000 0.000000 0.009364 -0.155218 19.500999 -0.000000 0.000000 0.000000 -0.000000 0.000000 0.000000 0.000000 0.000000 0.000000 0.009364 -0.155218 19.500999 -0.000000 0.000000 0.000000 -0.968435 4.889243 3.660947 0.000000 0.000000 0.000000
-15.399823 73.557330 318.297905 0.062413 0.149135 -19.506614 -0.009032 -0.161415 19.506520 -0.000000 0.000000 0.000000 -0.000000 0.000000 0.000000 0.000000 0.000000 0.000000 -0.000000 0.000000 0.000000 -0.538729 1.890027 -0.020993 3.365272 -11.657755 0.864932 2.176026 15.947448 -0.519223 0.000000 0.000000 0.000000 0.000000 0.000000 0.000000 -0.000000 0.000000 0.000000 -0.000000 0.000000 0.000000 3.426160 0.764813 -0.928130 -1.553811 -0.920636 0.855567 0.000000 0.000000 0.000000 0.000000 0.000000 0.000000 -0.009032 -0.161415 19.506520 -0.000000 0.000000 0.000000 -0.000000 0.000000 0.000000 0.000000 0.000000 0.000000 -0.009032 -0.161415 19.506520 -0.000000 0.000000 0.000000 -1.727628 4.603158 3.764313 0.000000 0.000000 0.000000
-15.381517 73.561469 318.316209 0.079732 0.153542 -19.504017 -0.023893 -0.171352 19.503874 -0.000000 0.000000 0.000000 -0.000000 0.000000 0.000000 0.000000 0.000000 0.000000 -0.000000 0.000000 0.000000 -0.986713 1.687031 -0.058827 6.345836 -10.243351 1.607850 -1.161159 14.986314 -0.833383 0.000000 0.000000 0.000000 0.000000 0.000000 0.000000 -0.000000 0.000000 0.000000 -0.000000 0.000000 0.000000 3.258583 0.854596 -0.903379 -3.592812 -3.251491 0.725748 0.000000 0.000000 0.000000 0.000000 0.000000 0.000000 -0.023893 -0.171352 19.503874 -0.000000 0.000000 0.000000 -2.182359 -5.017627 1.728663 0.000000 0.000000 0.000000 -0.023893 -0.171352 19.503874 -0.000000 0.000000 0.000000 -2.309502 4.183616 3.703327 0.000000 0.000000 0.000000
-15.365131 73.564944 318.334741 0.086261 0.164009 -19.484291 -0.026616 -0.183389 19.484125 -0.000000 0.000000 0.000000 -0.000000 0.000000 0.000000 0.000000 0.000000 0.000000 -0.000000 0.000000 0.000000 -1.234997 1.698081 -0.077853 7.366689 -11.059711 1.895354 0.592015 22.468399 -1.816734 0.000000 0.000000 0.000000 0.000000 0.000000 0.000000 -0.000000 0.000000 0.000000 -0.000000 0.000000 0.000000 2.354534 1.559343 -0.801790 -3.332490 -4.534601 0.553765 0.000000 0.000000 0.000000 0.000000 0.000000 0.000000 -0.026616 -0.183389 19.484125 -0.000000 0.000000 0.000000 -2.832050 -6.586934 2.229649 0.000000 0.000000 0.000000 -0.026616 -0.183389 19.484125 -0.000000 0.000000 0.000000 -2.322765 3.675409 3.356408 0.000000 0.000000 0.000000
-15.357282 73.571559 318.351648 0.068318 0.188926 -19.482700 -0.001395 -0.200894 19.482584 -0.000000 0.000000 0.000000 -0.000000 0.000000 0.000000 0.000000 0.000000 0.000000 -0.000000 0.000000 0.000000 -1.049617 1.559277 -0.066213 6.166150 -9.678838 1.516550 0.797883 20.614774 -1.544952 0.000000 0.000000 0.000000 0.000000 0.000000 0.000000 -0.000000 0.000000 0.000000 -0.000000 0.000000 0.000000 1.883983 2.079426 -0.769195 -4.495210 -3.269334 0.583214 0.000000 0.000000 0.000000 0.000000 0.000000 0.000000 -0.001395 -0.200894 19.482584 -0.000000 0.000000 0.000000 -4.240028 -10.141140 3.186036 0.000000 0.000000 0.000000 -0.001395 -0.200894 19.482584 -0.000000 0.000000 0.000000 -2.320536 3.568200 3.281152 0.000000 0.000000 0.000000
